<svg width="16" height="16" viewBox="0 0 16 16" fill="none" xmlns="http://www.w3.org/2000/svg">
<g clip-path="url(#clip0_486_143101)">
<path d="M10.43 12.0099C10.7158 13.0768 10.0827 14.1735 9.01575 14.4593C7.94881 14.7452 6.85214 14.1121 6.56626 13.0451M1.37057 7.7422C1.11091 6.81008 1.38094 5.80232 2.07187 5.12492M8.09689 3.82723C8.2997 3.46237 8.3665 3.02137 8.24993 2.5863C8.01169 1.69719 7.09779 1.16955 6.20868 1.40779C5.31957 1.64603 4.79194 2.55992 5.03017 3.44903C5.14675 3.8841 5.4251 4.23261 5.78317 4.44719M13.5454 4.48C13.3042 3.54293 12.5664 2.8052 11.6294 2.56401M11.6598 6.29685C11.4218 5.40877 10.7865 4.66612 9.89367 4.2323C9.00082 3.79848 7.92355 3.70902 6.89883 3.98359C5.87411 4.25816 4.98589 4.87428 4.42957 5.6964C3.87325 6.51853 3.6944 7.47932 3.93236 8.36741C4.32608 9.83677 4.24963 11.009 4.00099 11.8998C3.71762 12.915 3.57593 13.4226 3.61421 13.5246C3.658 13.6412 3.68968 13.6732 3.80583 13.7182C3.90736 13.7575 4.33388 13.6433 5.1869 13.4147L13.0969 11.2952C13.95 11.0666 14.3765 10.9523 14.4447 10.8675C14.5228 10.7705 14.5343 10.7269 14.5139 10.604C14.4961 10.4966 14.1196 10.1278 13.3665 9.3903C12.7058 8.74319 12.0535 7.76622 11.6598 6.29685Z" stroke="currentColor" stroke-width="1.5" stroke-linecap="round" stroke-linejoin="round"/>
</g>
<defs>
<clipPath id="clip0_486_143101">
<rect width="16" height="16" fill="transparent"/>
</clipPath>
</defs>
</svg>
