<svg viewBox="0 0 16 16" fill="none" xmlns="http://www.w3.org/2000/svg">
<path d="M9.33464 1.51306V4.26676C9.33464 4.64012 9.33464 4.82681 9.4073 4.96942C9.47121 5.09486 9.5732 5.19684 9.69864 5.26076C9.84125 5.33342 10.0279 5.33342 10.4013 5.33342H13.155M10.668 8.66671H5.33464M10.668 11.3334H5.33464M6.66797 6.00004H5.33464M9.33464 1.33337H5.86797C4.74786 1.33337 4.18781 1.33337 3.75999 1.55136C3.38366 1.74311 3.0777 2.04907 2.88596 2.42539C2.66797 2.85322 2.66797 3.41327 2.66797 4.53337V11.4667C2.66797 12.5868 2.66797 13.1469 2.88596 13.5747C3.0777 13.951 3.38366 14.257 3.75999 14.4487C4.18781 14.6667 4.74786 14.6667 5.86797 14.6667H10.1346C11.2547 14.6667 11.8148 14.6667 12.2426 14.4487C12.6189 14.257 12.9249 13.951 13.1166 13.5747C13.3346 13.1469 13.3346 12.5868 13.3346 11.4667V5.33337L9.33464 1.33337Z" stroke="currentColor" stroke-linecap="round" stroke-linejoin="round"/>
</svg>
