<svg viewBox="0 0 17 16" fill="none" xmlns="http://www.w3.org/2000/svg">
<path d="M9.83366 1.513V4.26669C9.83366 4.64006 9.83366 4.82675 9.90632 4.96935C9.97024 5.0948 10.0722 5.19678 10.1977 5.2607C10.3403 5.33336 10.527 5.33336 10.9003 5.33336H13.654M6.50033 10.6666L7.83366 12L10.8337 8.99998M9.83366 1.33331H6.36699C5.24689 1.33331 4.68683 1.33331 4.25901 1.5513C3.88269 1.74305 3.57673 2.04901 3.38498 2.42533C3.16699 2.85316 3.16699 3.41321 3.16699 4.53331V11.4666C3.16699 12.5868 3.16699 13.1468 3.38498 13.5746C3.57673 13.951 3.88269 14.2569 4.25901 14.4487C4.68683 14.6666 5.24689 14.6666 6.36699 14.6666H10.6337C11.7538 14.6666 12.3138 14.6666 12.7416 14.4487C13.118 14.2569 13.4239 13.951 13.6157 13.5746C13.8337 13.1468 13.8337 12.5868 13.8337 11.4666V5.33331L9.83366 1.33331Z" stroke="currentColor" stroke-width="1.2" stroke-linecap="round" stroke-linejoin="round"/>
</svg>